<?xml version="1.0" encoding="UTF-8" standalone="no"?>
<!-- Created with Inkscape (http://www.inkscape.org/) -->
<svg xmlns:dc="http://purl.org/dc/elements/1.1/" xmlns:cc="http://creativecommons.org/ns#" xmlns:rdf="http://www.w3.org/1999/02/22-rdf-syntax-ns#" xmlns:svg="http://www.w3.org/2000/svg" xmlns="http://www.w3.org/2000/svg" xmlns:xlink="http://www.w3.org/1999/xlink" xmlns:sodipodi="http://sodipodi.sourceforge.net/DTD/sodipodi-0.dtd" xmlns:inkscape="http://www.inkscape.org/namespaces/inkscape" width="300mm" height="300mm" viewBox="0 0 300 300" version="1.1" id="svg8" inkscape:version="0.92.4 (5da689c313, 2019-01-14)" sodipodi:docname="_Scaled-Cap-logo-svg.svg">
  <defs id="defs2"/>
  <sodipodi:namedview id="base" pagecolor="#ffffff" bordercolor="#666666" borderopacity="1.0" inkscape:pageopacity="0.0" inkscape:pageshadow="2" inkscape:zoom="0.35" inkscape:cx="221.17293" inkscape:cy="479.75541" inkscape:document-units="mm" inkscape:current-layer="g6305" showgrid="false" inkscape:window-width="1920" inkscape:window-height="1137" inkscape:window-x="1432" inkscape:window-y="-8" inkscape:window-maximized="1"/>
  <metadata id="metadata5">
    <rdf:RDF>
      <cc:Work rdf:about="">
        <dc:format>image/svg+xml</dc:format>
        <dc:type rdf:resource="http://purl.org/dc/dcmitype/StillImage"/>
        <dc:title/>
      </cc:Work>
    </rdf:RDF>
  </metadata>
  <g inkscape:label="Layer 1" inkscape:groupmode="layer" id="layer1" transform="translate(0,3)">
    <g transform="matrix(4.141672,0,0,4.141672,-275.16077,-441.35712)" style="display:inline;fill:#333333" id="g6305">
      <g id="g849" style="fill:#000000">
        
        <path inkscape:connector-curvature="0" id="path839" d="m 101.64875,175.36281 c -0.5304,-0.67833 -1.04907,-1.3266 -1.1526,-1.4406 -0.669246,-0.73698 -1.243724,-1.30137 -1.340605,-1.31706 -0.06211,-0.0101 -0.591527,0.0574 -1.176492,0.14996 l -1.063574,0.16825 -0.801646,-0.28098 c -0.440904,-0.15454 -0.959125,-0.33196 -1.151602,-0.39427 -0.192476,-0.0623 -0.929193,-0.31762 -1.637148,-0.56734 -0.707953,-0.24972 -1.417871,-0.49479 -1.577596,-0.54459 -0.308799,-0.0963 -1.374184,-0.47093 -2.531646,-0.89023 -0.386811,-0.14013 -1.110389,-0.46476 -1.607949,-0.7214 -1.620557,-0.83589 -2.876563,-1.48567 -3.187379,-1.64895 -0.167525,-0.088 -0.813169,-0.41705 -1.434764,-0.7312 -0.621596,-0.31414 -1.245158,-0.67465 -1.385693,-0.80113 -0.140534,-0.12647 -0.461535,-0.41623 -0.713334,-0.6439 -0.251799,-0.22766 -0.74329,-0.66954 -1.092203,-0.98193 -0.348912,-0.3124 -0.634607,-0.57377 -0.634878,-0.58082 -2.7e-4,-0.007 -0.343816,-0.31784 -0.763436,-0.69063 -0.41962,-0.3728 -0.87997,-0.79024 -1.023002,-0.92764 l -0.260056,-0.24982 0.04365,-1.40118 c 0.10117,-3.24756 0.05849,-2.94766 0.502631,-3.53183 0.348967,-0.45898 1.117424,-1.43577 1.545213,-1.96413 0.08235,-0.10171 0.404442,-0.36503 0.715754,-0.58515 2.421886,-1.71246 2.1411,-1.54922 4.631904,-2.69286 l 2.338502,-1.0737 0.428936,0.19993 c 0.235915,0.10996 0.429624,0.21785 0.430464,0.23976 0.0021,0.0539 1.190109,0.56688 1.310707,0.56596 0.05267,-4e-4 0.441824,0.13231 0.86478,0.29491 0.422955,0.1626 0.802642,0.29539 0.843749,0.29507 0.04111,-3.1e-4 0.397165,0.12222 0.791241,0.27228 0.394076,0.15007 0.749415,0.2726 0.789642,0.2723 0.04023,-3.1e-4 0.39055,0.11725 0.778496,0.26125 0.387946,0.14399 0.832487,0.30237 0.987869,0.35195 0.712155,0.22724 1.658321,0.55263 2.061142,0.70884 l 0.441729,0.17129 1.148602,-0.18811 c 0.827939,-0.13559 1.149265,-0.1708 1.150978,-0.12611 0.0013,0.0341 0.03935,0.0687 0.08453,0.0768 0.220475,0.0398 2.571284,2.79299 3.023094,3.54053 0.023,0.0381 0.11092,0.13769 0.19533,0.22134 0.11656,0.11551 0.17776,0.13735 0.25445,0.0908 0.0842,-0.0511 0.76758,-0.85087 0.78991,-0.92448 0.004,-0.0128 0.0658,-0.0863 0.13764,-0.16337 0.0718,-0.0771 0.17539,-0.19264 0.23016,-0.25683 0.0548,-0.0642 0.16471,-0.17458 0.24432,-0.24533 0.0796,-0.0708 0.11288,-0.1284 0.0739,-0.12811 -0.0389,3e-4 -0.0235,-0.0259 0.0343,-0.0582 0.0578,-0.0323 0.27129,-0.24786 0.47438,-0.47897 0.20308,-0.23112 0.53204,-0.57797 0.73101,-0.77079 0.19897,-0.19282 0.36654,-0.36105 0.37238,-0.37385 0.0332,-0.0728 0.4893,-0.47256 0.56323,-0.49366 0.0484,-0.0138 0.56204,0.0582 1.14149,0.16 0.86335,0.15167 1.08141,0.17444 1.20789,0.12613 0.0849,-0.0324 0.15494,-0.0435 0.15567,-0.0245 7.2e-4,0.0189 0.20579,-0.0427 0.4557,-0.13691 0.2499,-0.0942 0.48524,-0.17159 0.52296,-0.17187 0.0377,-2.9e-4 0.33947,-0.0965 0.67053,-0.21378 0.33107,-0.1173 0.62998,-0.21348 0.66425,-0.21374 0.0343,-2.6e-4 0.35691,-0.10705 0.71699,-0.23732 0.36008,-0.13027 0.68461,-0.23708 0.72119,-0.23736 0.0366,-2.7e-4 0.36111,-0.10708 0.72119,-0.23735 0.36007,-0.13027 0.68868,-0.23711 0.73023,-0.23743 0.0416,-3.1e-4 0.37147,-0.10896 0.73315,-0.24144 0.36168,-0.13247 0.65812,-0.22724 0.65876,-0.21058 6.4e-4,0.0166 0.20261,-0.0457 0.44882,-0.13855 0.24622,-0.0928 0.49972,-0.16921 0.56335,-0.16969 0.15887,-0.001 2.0733,-0.8482 2.0707,-0.91614 -0.001,-0.0301 0.17371,-0.13362 0.38859,-0.23013 l 0.39069,-0.17547 1.21327,0.51435 c 1.24298,0.52694 3.54084,1.6392 4.31559,2.08891 0.23858,0.13849 0.6039,0.38617 0.81183,0.5504 0.20792,0.16423 0.74886,0.57987 1.2021,0.92365 0.79624,0.60396 0.88859,0.70476 1.64119,1.79115 0.0791,0.11419 0.33459,0.46705 0.56775,0.78414 0.49876,0.6783 0.48726,0.58006 0.38778,3.31314 l -0.0659,1.80926 -0.58589,0.49142 c -0.32224,0.27027 -0.75841,0.63881 -0.96926,0.81896 -0.21086,0.18016 -0.64896,0.54505 -0.97357,0.81088 -0.32461,0.26583 -0.58992,0.49063 -0.58957,0.49956 3.4e-4,0.009 -0.26502,0.23374 -0.5897,0.49957 -0.32467,0.26582 -0.73522,0.60659 -0.91234,0.75726 -0.31446,0.2675 -1.38149,0.81115 -4.72151,2.4056 -0.81705,0.39005 -1.73223,0.84056 -2.03373,1.00115 -0.3015,0.16059 -0.85607,0.39008 -1.23237,0.50998 -0.37631,0.11989 -1.0087,0.32572 -1.40531,0.45739 -0.39661,0.13167 -0.9531,0.31096 -1.23664,0.39843 -0.28355,0.0875 -0.84006,0.2661 -1.2367,0.39698 -1.04114,0.34353 -1.86348,0.61037 -2.62765,0.85263 -0.36849,0.11682 -0.81333,0.26248 -0.98854,0.32369 -0.17521,0.0612 -0.37677,0.11172 -0.44791,0.11226 -0.0712,5.4e-4 -0.58009,-0.0788 -1.131,-0.17623 -0.5509,-0.0975 -1.04902,-0.16369 -1.10692,-0.14717 -0.26527,0.0757 -3.58792,3.66781 -3.58015,3.87051 0.009,0.23334 -0.29485,-0.0751 -1.14613,-1.16384 z" style="fill:#000000;stroke-width:0.06954931"/>
        <path style="fill:#000000;fill-opacity:1;stroke:#000000;stroke-width:0.08446312px;stroke-linecap:butt;stroke-linejoin:miter;stroke-opacity:1" d="m 90.425984,145.06893 -3.007552,2.96489 c 0,0 -1.130498,1.74907 0.02133,2.28233 1.151829,0.53325 12.840758,0.0213 12.840758,0.0213 0,0 2.49563,-0.74656 4.88461,-3.86076 2.38898,-3.1142 8.25476,-0.46926 5.67382,-2.11169 -2.58095,-1.64242 -15.250065,1.32289 -15.250065,1.32289 l -3.701786,-3.2e-4 z" id="path6237" inkscape:connector-curvature="0"/>
        <path style="fill:#000000;fill-opacity:1;stroke:#000000;stroke-width:0.08459613;stroke-linecap:butt;stroke-linejoin:round;stroke-miterlimit:4;stroke-dasharray:none;stroke-opacity:1" d="m 91.6326,143.68132 -0.06399,-0.68257 1.599764,-1.74907 2.81558,-4.79928 2.83691,-2.90091 3.156866,-1.1305 4.11672,0.064 2.34631,0.61858 2.51696,0.83188 1.68509,1.19448 1.62109,1.53578 1.17316,1.23715 0.93852,1.85572 0.78922,2.21834 0.14931,0.53325 -2.36765,-0.0213 -3.58347,-0.59724 -2.49562,0.2133 -2.45297,0.10665 -2.06903,0.63991 -1.49311,0.4266 -1.36513,0.34129 -1.877048,0.27729 -4.500664,0.0853 H 92.80576 l -0.618574,-0.0853 z" id="path6239" inkscape:connector-curvature="0"/>
        
        <path inkscape:connector-curvature="0" id="path837" d="m 132.72847,125.46583 c -0.32224,0.7985 -0.62433,1.57182 -0.67129,1.71848 -0.30362,0.94808 -0.50515,1.72778 -0.4703,1.81953 0.0223,0.0588 0.34549,0.48356 0.71811,0.94389 l 0.6775,0.83696 0.15749,0.83473 c 0.0866,0.45911 0.19207,0.99661 0.23435,1.19446 0.0423,0.19784 0.18953,0.96351 0.32724,1.70147 0.13772,0.73797 0.28044,1.47531 0.31717,1.63854 0.071,0.31558 0.27926,1.42554 0.49486,2.63759 0.072,0.40505 0.1527,1.194 0.17922,1.75322 0.0864,1.82139 0.15166,3.23401 0.16566,3.58483 0.008,0.18908 0.0454,0.91275 0.0842,1.60814 0.0387,0.69539 0.0383,1.41566 -9.5e-4,1.60061 -0.0393,0.18494 -0.1297,0.60781 -0.20097,0.93971 -0.0713,0.3319 -0.20819,0.97848 -0.30428,1.43685 -0.0961,0.45836 -0.17959,0.83647 -0.18556,0.84022 -0.006,0.004 -0.10335,0.45668 -0.21639,1.00648 -0.11304,0.5498 -0.24438,1.15719 -0.29185,1.34976 l -0.0863,0.35012 -1.23528,0.66279 c -2.86306,1.53617 -2.582,1.42318 -3.30997,1.33062 -0.57197,-0.0727 -1.80213,-0.24982 -2.4736,-0.35612 -0.12926,-0.0205 -0.51834,-0.16774 -0.86463,-0.32729 -2.69398,-1.24118 -2.41221,-1.07963 -4.64803,-2.66492 l -2.09911,-1.48835 -0.0413,-0.47143 c -0.0227,-0.25929 -0.0262,-0.48099 -0.008,-0.49267 0.0456,-0.0287 -0.10412,-1.31411 -0.16521,-1.41809 -0.0267,-0.0454 -0.10633,-0.44879 -0.17699,-0.89638 -0.0707,-0.44759 -0.14551,-0.8428 -0.16633,-0.87824 -0.0208,-0.0354 -0.0928,-0.40506 -0.15982,-0.82138 -0.0671,-0.41631 -0.13864,-0.78531 -0.15901,-0.81999 -0.0204,-0.0347 -0.0937,-0.39686 -0.163,-0.80482 -0.0693,-0.40797 -0.15438,-0.87215 -0.18914,-1.0315 -0.15928,-0.73037 -0.35056,-1.71247 -0.4167,-2.13942 l -0.0725,-0.4682 -0.73721,-0.90066 c -0.53139,-0.64922 -0.72255,-0.90989 -0.6847,-0.93372 0.0289,-0.0182 0.0398,-0.0684 0.0243,-0.11162 -0.0757,-0.21085 1.13316,-3.62329 1.55465,-4.38834 0.0215,-0.039 0.0638,-0.1649 0.094,-0.27983 0.0417,-0.1587 0.0301,-0.22262 -0.0486,-0.26578 -0.0863,-0.0474 -1.12066,-0.23931 -1.19558,-0.22184 -0.013,0.003 -0.10765,-0.0138 -0.2103,-0.0375 -0.10265,-0.0237 -0.25453,-0.0556 -0.3375,-0.0709 -0.083,-0.0153 -0.23355,-0.0554 -0.33463,-0.0889 -0.10107,-0.0336 -0.16763,-0.0336 -0.1479,2e-5 0.0197,0.0336 -0.0107,0.0333 -0.0676,-6.1e-4 -0.0569,-0.0339 -0.35031,-0.11102 -0.652,-0.17134 -0.30169,-0.0603 -0.76655,-0.17178 -1.03302,-0.24768 -0.26648,-0.0759 -0.49596,-0.13691 -0.50996,-0.13557 -0.0797,0.008 -0.6539,-0.18746 -0.70913,-0.24094 -0.0361,-0.035 -0.23062,-0.51583 -0.43219,-1.06855 -0.30032,-0.82352 -0.38963,-1.02375 -0.49471,-1.10914 -0.0705,-0.0573 -0.1151,-0.11246 -0.0991,-0.12256 0.016,-0.0101 -0.13985,-0.15688 -0.34642,-0.32619 -0.20657,-0.1693 -0.39122,-0.33444 -0.41033,-0.36697 -0.0191,-0.0325 -0.25329,-0.24574 -0.5204,-0.4738 -0.26712,-0.22806 -0.49987,-0.43884 -0.51723,-0.46838 -0.0173,-0.0296 -0.27117,-0.25558 -0.56402,-0.50228 -0.29286,-0.2467 -0.54762,-0.47435 -0.56615,-0.50589 -0.0185,-0.0315 -0.2733,-0.25918 -0.56615,-0.50589 -0.29285,-0.2467 -0.54968,-0.47786 -0.57073,-0.51369 -0.0211,-0.0358 -0.2801,-0.26722 -0.57567,-0.5142 -0.29557,-0.24699 -0.52586,-0.45633 -0.51175,-0.46521 0.0141,-0.009 -0.14088,-0.15262 -0.3444,-0.31942 -0.20351,-0.16681 -0.3964,-0.34816 -0.42863,-0.40302 -0.0805,-0.137 -1.77121,-1.37144 -1.82875,-1.33521 -0.0255,0.016 -0.20257,-0.0836 -0.39359,-0.22147 l -0.34731,-0.25061 -0.1612,-1.3079 c -0.16514,-1.33992 -0.35083,-3.88606 -0.34874,-4.78186 6.5e-4,-0.27587 0.0325,-0.71608 0.0707,-0.97827 0.0383,-0.26218 0.12776,-0.93847 0.19886,-1.50287 0.12493,-0.99155 0.16604,-1.12193 0.73059,-2.31689 0.0593,-0.1256 0.23718,-0.52329 0.39521,-0.88376 0.33804,-0.77109 0.25871,-0.71201 2.67537,-1.9924 l 1.59979,-0.8476 0.71852,0.26169 c 0.39519,0.14393 0.93243,0.33739 1.19388,0.42992 0.26145,0.0925 0.79651,0.28949 1.18903,0.4377 0.39251,0.1482 0.71985,0.26556 0.72742,0.2608 0.008,-0.005 0.33492,0.11265 0.72748,0.26091 0.39255,0.14826 0.89294,0.33342 1.11197,0.41148 0.3889,0.13858 1.39323,0.79083 4.44408,2.88615 0.74631,0.51256 1.59406,1.07987 1.88388,1.26068 0.28982,0.18082 0.76585,0.54634 1.05784,0.81228 0.29199,0.26594 0.78643,0.71069 1.09876,0.98833 0.31234,0.27764 0.74585,0.66993 0.96337,0.87176 0.21752,0.20182 0.65049,0.59446 0.96215,0.87252 0.81808,0.72989 1.46033,1.30863 2.05223,1.84929 0.28541,0.26071 0.63398,0.57313 0.77459,0.69426 0.14061,0.12113 0.28514,0.27043 0.32118,0.33177 0.036,0.0614 0.22183,0.54176 0.41287,1.06759 0.19105,0.52583 0.38275,0.99032 0.42601,1.03221 0.19819,0.19188 4.97038,1.27332 5.14204,1.16524 0.1976,-0.12441 0.0823,0.29292 -0.43486,1.5745 z" style="fill:#000000;stroke-width:0.06954931"/>
        
        <path inkscape:connector-curvature="0" id="path835" d="m 73.976561,123.49849 c 0.852652,-0.12017 1.673407,-0.24522 1.823899,-0.27787 0.972868,-0.2111 1.748878,-0.42642 1.810906,-0.50248 0.03977,-0.0487 0.246034,-0.54099 0.458377,-1.09385 l 0.386079,-1.00521 0.644158,-0.55375 c 0.354287,-0.30457 0.767051,-0.66465 0.917253,-0.80018 0.150203,-0.13554 0.739658,-0.6459 1.3099,-1.13415 0.570241,-0.48824 1.137436,-0.98052 1.260432,-1.09394 0.237792,-0.21928 1.094927,-0.95461 2.036785,-1.74735 0.31476,-0.26493 0.957685,-0.72925 1.428724,-1.03183 1.534175,-0.9855 2.724904,-1.74834 3.021725,-1.93587 0.159981,-0.10108 0.767757,-0.4957 1.350613,-0.87695 0.582856,-0.38124 1.206846,-0.74101 1.386646,-0.79948 0.1798,-0.0585 0.591235,-0.19158 0.9143,-0.29581 0.323065,-0.10424 0.951483,-0.30894 1.396484,-0.45491 0.445002,-0.14597 0.8142,-0.2627 0.82044,-0.25941 0.0062,0.003 0.447162,-0.13884 0.979824,-0.31584 0.532663,-0.177 1.124347,-0.36696 1.314856,-0.42213 l 0.346379,-0.10031 1.191631,0.7384 c 2.761888,1.71139 2.523508,1.52448 2.807338,2.2012 0.22301,0.53171 0.68471,1.68561 0.92838,2.32026 0.0469,0.12218 0.11391,0.53278 0.14888,0.91244 0.2721,2.95365 0.27112,2.62886 0.0161,5.35777 l -0.23939,2.56206 -0.38761,0.2715 c -0.21319,0.14933 -0.40348,0.26314 -0.42287,0.25292 -0.0477,-0.0252 -1.08599,0.74722 -1.1455,0.85212 -0.026,0.0458 -0.33549,0.31647 -0.687789,0.60146 -0.352294,0.28499 -0.657129,0.54742 -0.677413,0.58318 -0.02028,0.0358 -0.304424,0.28284 -0.631422,0.54909 -0.326998,0.26625 -0.610783,0.51272 -0.630632,0.54771 -0.01985,0.035 -0.296824,0.27959 -0.615499,0.54357 -0.318675,0.26397 -0.678105,0.56977 -0.798734,0.67954 -0.552874,0.50312 -1.307755,1.15983 -1.644443,1.43058 l -0.369207,0.29691 -0.411394,1.08877 c -0.296542,0.78481 -0.426713,1.08069 -0.46627,1.05983 -0.03018,-0.0159 -0.07915,-2.6e-4 -0.108805,0.0348 -0.14472,0.17103 -3.704444,0.8303 -4.577734,0.84781 -0.04449,8.9e-4 -0.174702,0.0272 -0.289348,0.0585 -0.158319,0.0432 -0.207833,0.0853 -0.205888,0.17495 0.0021,0.0985 0.353082,1.09018 0.405665,1.14633 0.0091,0.01 0.04183,0.10014 0.07266,0.20088 0.03083,0.10073 0.07914,0.24821 0.10734,0.32773 0.0282,0.0795 0.06884,0.22994 0.09031,0.33426 0.02147,0.10432 0.05475,0.16195 0.07397,0.12808 0.01922,-0.0339 0.03419,-0.007 0.03327,0.0588 -9.2e-4,0.0662 0.07901,0.35888 0.177613,0.65031 0.09861,0.29143 0.234513,0.74974 0.302013,1.01847 0.0675,0.26872 0.129407,0.49796 0.137572,0.50942 0.04645,0.0652 0.164606,0.66003 0.14591,0.73459 -0.01223,0.0488 -0.331418,0.45765 -0.709302,0.90857 -0.563028,0.67184 -0.691779,0.8493 -0.713186,0.98299 -0.01437,0.0897 -0.03984,0.15591 -0.05661,0.14707 -0.01677,-0.009 -0.06595,0.19955 -0.109283,0.4631 -0.04333,0.26355 -0.09402,0.50602 -0.112637,0.53884 -0.01862,0.0328 -0.08617,0.34223 -0.150123,0.68758 -0.06395,0.34536 -0.130113,0.65232 -0.147023,0.68212 -0.01691,0.0298 -0.08575,0.36263 -0.152969,0.7396 -0.06722,0.37697 -0.136991,0.71143 -0.155039,0.74325 -0.01805,0.0318 -0.08781,0.36627 -0.155038,0.74324 -0.06722,0.37697 -0.138999,0.71497 -0.159502,0.75111 -0.0205,0.0361 -0.09137,0.37619 -0.157482,0.75565 -0.06611,0.37946 -0.132265,0.68357 -0.147006,0.6758 -0.01474,-0.008 -0.06173,0.19831 -0.10443,0.45796 -0.0427,0.25965 -0.103315,0.51738 -0.13471,0.57272 -0.0784,0.13819 -0.302089,2.21963 -0.241952,2.25135 0.02661,0.014 0.02886,0.21725 0.005,0.45159 l -0.04338,0.42608 -1.052078,0.79355 c -1.077833,0.81298 -3.190009,2.24686 -3.966843,2.69295 -0.239226,0.13738 -0.636383,0.32992 -0.882571,0.42787 -0.246188,0.0979 -0.87662,0.3586 -1.40096,0.57922 -0.921164,0.38759 -1.054634,0.41717 -2.371778,0.52574 -0.138441,0.0114 -0.571772,0.0562 -0.962956,0.0996 -0.836807,0.0928 -0.745977,0.13195 -3.063153,-1.32074 l -1.533944,-0.96166 -0.132631,-0.75311 c -0.07295,-0.4142 -0.174025,-0.9762 -0.224616,-1.24888 -0.05059,-0.27269 -0.147548,-0.83454 -0.215459,-1.24858 -0.06791,-0.41403 -0.129942,-0.7562 -0.137846,-0.76036 -0.0079,-0.004 -0.06991,-0.34638 -0.137787,-0.76047 -0.06788,-0.41409 -0.157716,-0.94003 -0.199639,-1.16874 -0.07443,-0.40609 -0.01173,-1.60199 0.277442,-5.29176 0.07074,-0.90261 0.13817,-1.92044 0.149846,-2.26184 0.01168,-0.34139 0.09022,-0.93641 0.174535,-1.32225 0.08432,-0.38584 0.22226,-1.03641 0.306536,-1.44572 0.08428,-0.40931 0.207251,-0.98089 0.273276,-1.27018 0.06603,-0.28929 0.189575,-0.86057 0.274554,-1.26951 0.223061,-1.07342 0.403141,-1.919 0.575419,-2.70192 0.08308,-0.37753 0.179353,-0.83561 0.213952,-1.01795 0.0346,-0.18233 0.09163,-0.38215 0.126736,-0.44403 0.03511,-0.0619 0.358257,-0.46299 0.718116,-0.89136 0.359859,-0.42836 0.666271,-0.82663 0.680915,-0.88504 0.06709,-0.26757 -1.382461,-4.94113 -1.561885,-5.03575 -0.20655,-0.10893 0.212498,-0.21777 1.580977,-0.41066 z" style="fill:#000000;stroke-width:0.02414484;stroke:#000000;stroke-opacity:1;stroke-miterlimit:4;stroke-dasharray:none;stroke-dashoffset:0"/>
      </g>
    </g>
  </g>
</svg>